<svg viewBox="0 0 14.9963 17.9333" fill="none" xmlns="http://www.w3.org/2000/svg" xmlns:xlink="http://www.w3.org/1999/xlink" x="0" y="0"><path id="Vector_26" d="M1.6681,13.3333h11.66v-5.8c0,-1.0556 -0.26,-2.0389 -0.8,-2.95c-0.51,-0.8889 -1.2,-1.5945 -2.08,-2.1167c-0.91,-0.5222 -1.89,-0.7833 -2.95,-0.7833c-1.06,0 -2.04,0.2611 -2.95,0.7833c-0.88,0.5222 -1.57,1.2278 -2.08,2.1167c-0.54,0.9111 -0.8,1.8944 -0.8,2.95zM7.4981,-0.0001c1.36,0 2.62,0.3445 3.78,1.0334c1.14,0.6666 2.04,1.5666 2.7,2.7c0.68,1.1666 1.02,2.4333 1.02,3.8v7.4666h-15v-7.4666c0,-1.3667 0.34,-2.6334 1.02,-3.8c0.66,-1.1334 1.56,-2.0334 2.7,-2.7c1.16,-0.6778 2.42,-1.0167 3.78,-1.0167zM5.4181,15.8333h4.16c0,0.3777 -0.09,0.7277 -0.28,1.05c-0.19,0.3222 -0.44,0.5777 -0.76,0.7666c-0.32,0.1889 -0.66,0.2834 -1.04,0.2834c-0.38,0 -0.72,-0.0945 -1.04,-0.2834c-0.32,-0.1889 -0.57,-0.4444 -0.76,-0.7666c-0.19,-0.3223 -0.28,-0.6667 -0.28,-1.0334z" fill="currentColor"/></svg>