<svg viewBox="0 0 13.325 13.3333" fill="none" xmlns="http://www.w3.org/2000/svg" xmlns:xlink="http://www.w3.org/1999/xlink" x="0" y="0"><path id="Vector_11" d="M4.6644,-0.0004v1.334h4v-1.334h1.33v1.334h2.66c0.19,0 0.35,0.064 0.48,0.193c0.13,0.129 0.19,0.287 0.19,0.473v10.667c0,0.187 -0.06,0.344 -0.19,0.473c-0.13,0.129 -0.29,0.194 -0.48,0.194h-11.99c-0.18,0 -0.34,-0.065 -0.47,-0.194c-0.13,-0.129 -0.19,-0.286 -0.19,-0.473v-10.667c0,-0.186 0.06,-0.344 0.19,-0.473c0.13,-0.129 0.29,-0.193 0.47,-0.193h2.67v-1.334zM11.9944,6.6666h-10.66v5.333h10.66zM3.3344,2.6666h-2v2.667h10.66v-2.667h-2v1.333h-1.33v-1.333h-4v1.333h-1.33z" fill="currentColor"/></svg>