<svg viewBox="0 0 19.4167 18.5" fill="none" xmlns="http://www.w3.org/2000/svg" xmlns:xlink="http://www.w3.org/1999/xlink" x="0" y="0"><path id="Vector_6" d="M5.5833,5.5835h7.3334M5.5833,9.2505h5.5M9.7083,16.1255l-0.4583,0.458l-2.75,-2.75h-2.75c-0.7293,0 -1.4288,-0.29 -1.9445,-0.806c-0.5158,-0.515 -0.8055,-1.215 -0.8055,-1.944v-7.333c0,-0.73 0.2897,-1.429 0.8055,-1.945c0.5157,-0.516 1.2152,-0.805 1.9445,-0.805h11c0.7293,0 1.4288,0.289 1.9445,0.805c0.5158,0.516 0.8055,1.215 0.8055,1.945v5.041M15.6667,12.0005v5.5M15.6667,17.5005l2.75,-2.75M15.6667,17.5005l-2.75,-2.75" stroke="#374151" stroke-width="2" stroke-linecap="round" stroke-linejoin="round"/></svg>