<svg viewBox="0 0 18.0714 19.6429" fill="none" xmlns="http://www.w3.org/2000/svg" xmlns:xlink="http://www.w3.org/1999/xlink" x="0" y="0"><path id="Vector_7" d="M16.1072,11.7854v-1.693c0.4337,-0.273 0.8299,-0.602 1.1785,-0.978v7.975c0,0.677 -0.269,1.327 -0.7479,1.806c-0.4789,0.478 -1.1284,0.748 -1.8056,0.748h-12.1786c-0.6772,0 -1.3268,-0.27 -1.8056,-0.748c-0.4789,-0.479 -0.748,-1.129 -0.748,-1.806v-12.179c0,-0.677 0.2691,-1.326 0.748,-1.805c0.4788,-0.479 1.1284,-0.748 1.8056,-0.748h5.1975c-0.1978,0.375 -0.3545,0.77 -0.4675,1.178h-4.73c-0.3647,0 -0.7144,0.145 -0.9723,0.403c-0.2578,0.258 -0.4027,0.608 -0.4027,0.972v6.875h4.7143c0.1424,0 0.28,0.052 0.3873,0.146c0.1073,0.093 0.1771,0.222 0.1965,0.364l0.0055,0.08c0,0.573 0.2276,1.122 0.6328,1.528c0.4052,0.405 0.9548,0.632 1.5279,0.632c0.573,0 1.1226,-0.227 1.5278,-0.632c0.4053,-0.406 0.6329,-0.955 0.6329,-1.528c0,-0.143 0.0516,-0.28 0.1452,-0.388c0.0936,-0.107 0.2229,-0.177 0.3639,-0.196l0.0802,-0.006zM1.1786,17.0894c0,0.759 0.616,1.375 1.375,1.375h12.1786c0.3646,0 0.7144,-0.145 0.9722,-0.403c0.2579,-0.258 0.4028,-0.607 0.4028,-0.972v-4.125h-4.1769c-0.1331,0.743 -0.5138,1.418 -1.0801,1.917c-0.5663,0.499 -1.2848,0.791 -2.0384,0.829l-0.1689,0.004c-0.7554,0 -1.4885,-0.256 -2.0796,-0.726c-0.5911,-0.471 -1.0053,-1.128 -1.1748,-1.864l-0.033,-0.16h-4.1769zM12.9643,10.2144c1.3545,0 2.6535,-0.538 3.6113,-1.496c0.9578,-0.958 1.4959,-2.257 1.4959,-3.611c0,-1.355 -0.5381,-2.654 -1.4959,-3.612c-0.9578,-0.957 -2.2568,-1.495 -3.6113,-1.495c-1.3545,0 -2.6535,0.538 -3.6113,1.495c-0.9578,0.958 -1.4958,2.257 -1.4958,3.612c0,1.354 0.538,2.653 1.4958,3.611c0.9578,0.958 2.2568,1.496 3.6113,1.496zM15.9925,3.4214l-3.9286,3.928c-0.0365,0.037 -0.0799,0.066 -0.1276,0.086c-0.0477,0.019 -0.0989,0.03 -0.1506,0.03c-0.0516,0 -0.1028,-0.011 -0.1505,-0.03c-0.0477,-0.02 -0.0911,-0.049 -0.1276,-0.086l-1.5714,-1.571c-0.0738,-0.074 -0.1152,-0.174 -0.1152,-0.278c0,-0.105 0.0414,-0.205 0.1152,-0.278c0.0737,-0.074 0.1738,-0.116 0.2781,-0.116c0.1043,0 0.2044,0.042 0.2782,0.116l1.2932,1.294l3.6505,-3.652c0.0737,-0.073 0.1738,-0.115 0.2781,-0.115c0.1043,0 0.2044,0.042 0.2782,0.115c0.0737,0.074 0.1152,0.174 0.1152,0.279c0,0.104 -0.0415,0.204 -0.1152,0.278z" fill="currentColor"/></svg>