<svg viewBox="0 0 16.6625 16.6667" fill="none" xmlns="http://www.w3.org/2000/svg" xmlns:xlink="http://www.w3.org/1999/xlink" x="0" y="0"><path id="Vector_3" d="M7.4982,7.5004v-3.334h1.6662v3.334h3.3325v1.666h-3.3325v3.334h-1.6662v-3.334h-3.3325v-1.666zM8.3313,16.6664c-1.1331,0 -2.2161,-0.216 -3.2492,-0.65c-0.9887,-0.422 -1.869,-1.019 -2.641,-1.791c-0.772,-0.773 -1.3691,-1.653 -1.7912,-2.642c-0.4333,-1.033 -0.6499,-2.117 -0.6499,-3.25c0,-1.133 0.2166,-2.217 0.6499,-3.25c0.4221,-0.989 1.0192,-1.869 1.7912,-2.642c0.772,-0.772 1.6523,-1.369 2.641,-1.791c1.0331,-0.434 2.1161,-0.65 3.2492,-0.65c1.133,0 2.2161,0.216 3.2492,0.65c0.9886,0.422 1.8689,1.019 2.641,1.791c0.772,0.773 1.3691,1.653 1.7912,2.642c0.4332,1.033 0.6498,2.117 0.6498,3.25c0,1.133 -0.2166,2.217 -0.6498,3.25c-0.4221,0.989 -1.0192,1.869 -1.7912,2.642c-0.7721,0.772 -1.6524,1.369 -2.641,1.791c-1.0331,0.434 -2.1162,0.65 -3.2492,0.65zM8.3313,15.0004c1.2108,0 2.3327,-0.306 3.3658,-0.917c0.9998,-0.589 1.794,-1.383 2.3827,-2.383c0.611,-1.034 0.9165,-2.156 0.9165,-3.367c0,-1.211 -0.3055,-2.333 -0.9165,-3.367c-0.5887,-1 -1.3829,-1.794 -2.3827,-2.383c-1.0331,-0.611 -2.155,-0.917 -3.3658,-0.917c-1.2108,0 -2.3328,0.306 -3.3658,0.917c-0.9998,0.589 -1.794,1.383 -2.3828,2.383c-0.6109,1.034 -0.9164,2.156 -0.9164,3.367c0,1.211 0.3055,2.333 0.9164,3.367c0.5888,1 1.383,1.794 2.3828,2.383c1.033,0.611 2.155,0.917 3.3658,0.917z" fill="currentColor"/></svg>