<svg viewBox="0 0 20 20" fill="none" xmlns="http://www.w3.org/2000/svg" xmlns:xlink="http://www.w3.org/1999/xlink" x="0" y="0"><path id="Vector_16" d="M10,20c-1.36,0 -2.66,-0.26 -3.9,-0.78c-1.19,-0.507 -2.24,-1.223 -3.17,-2.15c-0.93,-0.927 -1.64,-1.983 -2.15,-3.17c-0.52,-1.24 -0.78,-2.54 -0.78,-3.9c0,-1.36 0.26,-2.66 0.78,-3.9c0.51,-1.187 1.22,-2.243 2.15,-3.17c0.93,-0.927 1.98,-1.643 3.17,-2.15c1.24,-0.52 2.54,-0.78 3.9,-0.78c1.36,0 2.66,0.26 3.9,0.78c1.19,0.507 2.24,1.223 3.17,2.15c0.93,0.927 1.64,1.983 2.15,3.17c0.52,1.24 0.78,2.54 0.78,3.9c0,1.36 -0.26,2.66 -0.78,3.9c-0.51,1.187 -1.22,2.243 -2.15,3.17c-0.93,0.927 -1.98,1.643 -3.17,2.15c-1.24,0.52 -2.54,0.78 -3.9,0.78zM10,18c1.45,0 2.8,-0.367 4.04,-1.1c1.2,-0.707 2.15,-1.66 2.86,-2.86c0.73,-1.24 1.1,-2.587 1.1,-4.04c0,-1.453 -0.37,-2.8 -1.1,-4.04c-0.71,-1.2 -1.66,-2.153 -2.86,-2.86c-1.24,-0.733 -2.59,-1.1 -4.04,-1.1c-1.45,0 -2.8,0.367 -4.04,1.1c-1.2,0.707 -2.15,1.66 -2.86,2.86c-0.73,1.24 -1.1,2.587 -1.1,4.04c0,1.453 0.37,2.8 1.1,4.04c0.71,1.2 1.66,2.153 2.86,2.86c1.24,0.733 2.59,1.1 4.04,1.1zM11,10h4v2h-6v-7h2z" fill="currentColor"/></svg>