<svg viewBox="0 0 14.9963 15" fill="none" xmlns="http://www.w3.org/2000/svg" xmlns:xlink="http://www.w3.org/1999/xlink" x="0" y="0"><path id="Vector_2" d="M9.1644,15c-0.2332,0 -0.4304,-0.081 -0.5915,-0.242c-0.1611,-0.161 -0.2416,-0.358 -0.2416,-0.591v-6.667c0,-0.233 0.0805,-0.431 0.2416,-0.592c0.1611,-0.161 0.3583,-0.241 0.5915,-0.241h4.9988c0.2333,0 0.4304,0.08 0.5915,0.241c0.1611,0.161 0.2416,0.359 0.2416,0.592v6.667c0,0.233 -0.0805,0.43 -0.2416,0.591c-0.1611,0.161 -0.3582,0.242 -0.5915,0.242zM0.8332,8.333c-0.2333,0 -0.4305,-0.08 -0.5915,-0.241c-0.1611,-0.161 -0.2416,-0.359 -0.2416,-0.592v-6.667c0,-0.233 0.0805,-0.43 0.2416,-0.591c0.161,-0.161 0.3582,-0.242 0.5915,-0.242h4.9987c0.2333,0 0.4305,0.081 0.5915,0.242c0.1611,0.161 0.2417,0.358 0.2417,0.591v6.667c0,0.233 -0.0806,0.431 -0.2417,0.592c-0.161,0.161 -0.3582,0.241 -0.5915,0.241zM4.9988,6.667v-5h-3.3325v5zM0.8332,15c-0.2333,0 -0.4305,-0.081 -0.5915,-0.242c-0.1611,-0.161 -0.2416,-0.358 -0.2416,-0.591v-3.334c0,-0.233 0.0805,-0.43 0.2416,-0.591c0.161,-0.161 0.3582,-0.242 0.5915,-0.242h4.9987c0.2333,0 0.4305,0.081 0.5915,0.242c0.1611,0.161 0.2417,0.358 0.2417,0.591v3.334c0,0.233 -0.0806,0.43 -0.2417,0.591c-0.161,0.161 -0.3582,0.242 -0.5915,0.242zM1.6663,13.333h3.3325v-1.666h-3.3325zM9.9976,13.333h3.3325v-5h-3.3325zM8.3313,0.833c0,-0.233 0.0805,-0.43 0.2416,-0.591c0.1611,-0.161 0.3583,-0.242 0.5915,-0.242h4.9988c0.2333,0 0.4304,0.081 0.5915,0.242c0.1611,0.161 0.2416,0.358 0.2416,0.591v3.334c0,0.233 -0.0805,0.43 -0.2416,0.591c-0.1611,0.161 -0.3582,0.242 -0.5915,0.242h-4.9988c-0.2332,0 -0.4304,-0.081 -0.5915,-0.242c-0.1611,-0.161 -0.2416,-0.358 -0.2416,-0.591zM9.9976,1.667v1.666h3.3325v-1.666z" fill="currentColor"/></svg>