<svg viewBox="0 0 16.08 10.475" fill="none" xmlns="http://www.w3.org/2000/svg" xmlns:xlink="http://www.w3.org/1999/xlink" x="0" y="0"><g id="clarity:eye-show-line">
<path id="Vector_12" d="M15.95,5c-1.69,-3.115 -4.64,-5 -7.91,-5c-3.27,0 -6.23,1.885 -7.9,5l-0.14,0.235l0.13,0.24c1.68,3.115 4.64,5 7.91,5c3.27,0 6.23,-1.86 7.91,-5l0.13,-0.24zM8.04,9.45c-2.82,0 -5.4,-1.57 -6.9,-4.215c1.5,-2.645 4.08,-4.215 6.9,-4.215c2.81,0 5.37,1.575 6.89,4.215c-1.52,2.645 -4.08,4.215 -6.89,4.215z" fill="black"/>
<path id="Vector_13" d="M8.18,1.82c-0.67,0.005 -1.33,0.211 -1.9,0.591c-0.56,0.381 -0.99,0.919 -1.25,1.547c-0.25,0.628 -0.32,1.318 -0.18,1.982c0.14,0.664 0.47,1.273 0.95,1.749c0.48,0.477 1.09,0.8 1.76,0.929c0.66,0.128 1.35,0.057 1.98,-0.206c0.62,-0.263 1.16,-0.704 1.53,-1.27c0.37,-0.565 0.57,-1.229 0.57,-1.907c0,-0.451 -0.09,-0.898 -0.27,-1.314c-0.17,-0.416 -0.43,-0.793 -0.75,-1.111c-0.32,-0.317 -0.7,-0.568 -1.12,-0.738c-0.42,-0.17 -0.86,-0.255 -1.32,-0.252zM8.18,7.68c-0.47,-0.005 -0.94,-0.151 -1.34,-0.421c-0.39,-0.269 -0.7,-0.649 -0.88,-1.093c-0.18,-0.443 -0.23,-0.93 -0.13,-1.4c0.09,-0.469 0.33,-0.9 0.67,-1.238c0.33,-0.338 0.77,-0.568 1.24,-0.661c0.47,-0.094 0.95,-0.046 1.4,0.136c0.44,0.182 0.82,0.492 1.08,0.889c0.27,0.397 0.42,0.864 0.42,1.343c0,0.322 -0.06,0.642 -0.18,0.94c-0.13,0.297 -0.31,0.568 -0.54,0.795c-0.23,0.228 -0.5,0.408 -0.79,0.529c-0.3,0.122 -0.62,0.184 -0.95,0.181z" fill="black"/>
</g></svg>