<svg viewBox="0 0 15.8294 16.6667" fill="none" xmlns="http://www.w3.org/2000/svg" xmlns:xlink="http://www.w3.org/1999/xlink" x="0" y="0"><path id="Vector_4" d="M2.4994,13.3334h1.6662v1.67h9.9975v-13.34h-9.9975v1.67h-1.6662v-2.5c0,-0.23 0.0805,-0.43 0.2416,-0.59c0.1611,-0.16 0.3582,-0.24 0.5915,-0.24h11.6638c0.2332,0 0.4304,0.08 0.5915,0.24c0.161,0.16 0.2416,0.36 0.2416,0.59v15c0,0.23 -0.0806,0.43 -0.2416,0.59c-0.1611,0.16 -0.3583,0.24 -0.5915,0.24h-11.6638c-0.2333,0 -0.4304,-0.08 -0.5915,-0.24c-0.1611,-0.16 -0.2416,-0.36 -0.2416,-0.59zM4.1656,7.5034h5.8319v1.66h-5.8319v2.5l-4.1656,-3.33l4.1656,-3.33z" fill="currentColor"/></svg>