<svg viewBox="0 0 16.6625 15" fill="none" xmlns="http://www.w3.org/2000/svg" xmlns:xlink="http://www.w3.org/1999/xlink" x="0" y="0"><path id="Vector_4" d="M0.8332,0h14.9962c0.2333,0 0.4304,0.081 0.5915,0.242c0.1611,0.161 0.2416,0.358 0.2416,0.591v13.334c0,0.233 -0.0805,0.43 -0.2416,0.591c-0.1611,0.161 -0.3582,0.242 -0.5915,0.242h-14.9962c-0.2333,0 -0.4305,-0.081 -0.5916,-0.242c-0.161,-0.161 -0.2416,-0.358 -0.2416,-0.591v-13.334c0,-0.233 0.0806,-0.43 0.2416,-0.591c0.1611,-0.161 0.3583,-0.242 0.5916,-0.242zM14.9963,3.533l-6.5984,5.917l-6.7316,-5.933v9.816h13.33zM2.0995,1.667l6.2818,5.55l6.1984,-5.55z" fill="currentColor"/></svg>