<svg viewBox="0 0 20 18" fill="none" xmlns="http://www.w3.org/2000/svg" xmlns:xlink="http://www.w3.org/1999/xlink" x="0" y="0"><path id="Vector_8" d="M1,0h18c0.28,0 0.517,0.097 0.71,0.29c0.193,0.193 0.29,0.43 0.29,0.71v16c0,0.28 -0.097,0.517 -0.29,0.71c-0.193,0.193 -0.43,0.29 -0.71,0.29h-18c-0.28,0 -0.517,-0.097 -0.71,-0.29c-0.193,-0.193 -0.29,-0.43 -0.29,-0.71v-16c0,-0.28 0.097,-0.517 0.29,-0.71c0.193,-0.193 0.43,-0.29 0.71,-0.29zM18,4.24l-7.92,7.1l-8.08,-7.12v11.78h16zM2.52,2l7.54,6.66l7.44,-6.66z" fill="currentColor"/></svg>