<svg viewBox="0 0 13.325 13.3333" fill="none" xmlns="http://www.w3.org/2000/svg" xmlns:xlink="http://www.w3.org/1999/xlink" x="0" y="0"><path id="Vector_2" d="M9.9925,-0.0004c0.19,0 0.35,0.065 0.47,0.194c0.13,0.128 0.2,0.286 0.2,0.473v2.667h2c0.18,0 0.34,0.064 0.47,0.193c0.13,0.129 0.19,0.287 0.19,0.473v6.667c0,0.187 -0.06,0.344 -0.19,0.473c-0.13,0.129 -0.29,0.194 -0.47,0.194h-2v1.333c0,0.187 -0.07,0.344 -0.2,0.473c-0.12,0.129 -0.28,0.194 -0.47,0.194h-6.66c-0.19,0 -0.35,-0.065 -0.47,-0.194c-0.13,-0.129 -0.2,-0.286 -0.2,-0.473v-1.333h-2c-0.18,0 -0.34,-0.065 -0.47,-0.194c-0.13,-0.129 -0.19,-0.286 -0.19,-0.473v-6.667c0,-0.186 0.06,-0.344 0.19,-0.473c0.13,-0.129 0.29,-0.193 0.47,-0.193h2v-2.667c0,-0.187 0.07,-0.345 0.2,-0.473c0.12,-0.129 0.28,-0.194 0.47,-0.194zM9.3325,9.9996h-5.33v2h5.33zM11.9925,4.6666h-10.66v5.333h1.33v-0.666c0,-0.187 0.07,-0.345 0.2,-0.474c0.12,-0.129 0.28,-0.193 0.47,-0.193h6.66c0.19,0 0.35,0.064 0.47,0.193c0.13,0.129 0.2,0.287 0.2,0.474v0.666h1.33zM4.0025,5.3336v1.333h-2v-1.333zM9.3325,1.3336h-5.33v2h5.33z" fill="currentColor"/></svg>