<svg viewBox="0 0 27.5 23.75" fill="none" xmlns="http://www.w3.org/2000/svg" xmlns:xlink="http://www.w3.org/1999/xlink" x="0" y="0"><path id="Vector_5" d="M0,15.625c0,-1.433 0.35,-2.767 1.05,-4c0.683,-1.2 1.608,-2.167 2.775,-2.9c0.217,-1.617 0.788,-3.092 1.712,-4.425c0.926,-1.333 2.096,-2.375 3.513,-3.125c1.467,-0.783 3.033,-1.175 4.7,-1.175c1.667,0 3.233,0.392 4.7,1.175c1.417,0.75 2.588,1.792 3.512,3.125c0.926,1.333 1.496,2.808 1.713,4.425c1.167,0.733 2.092,1.7 2.775,2.9c0.7,1.233 1.05,2.558 1.05,3.975c0,1.417 -0.333,2.733 -1,3.95c-0.667,1.183 -1.571,2.15 -2.712,2.9c-1.142,0.75 -2.405,1.175 -3.788,1.275l-12.5,0.025c-1.383,-0.117 -2.646,-0.55 -3.787,-1.3c-1.142,-0.75 -2.046,-1.717 -2.713,-2.9c-0.667,-1.217 -1,-2.525 -1,-3.925zM19.8,21.225c0.967,-0.067 1.846,-0.358 2.638,-0.875c0.791,-0.517 1.416,-1.192 1.874,-2.025c0.459,-0.833 0.688,-1.737 0.688,-2.712c0,-0.976 -0.237,-1.884 -0.712,-2.726c-0.476,-0.841 -1.121,-1.52 -1.938,-2.037l-1,-0.625l-0.15,-1.175c-0.167,-1.233 -0.6,-2.346 -1.3,-3.338c-0.7,-0.991 -1.588,-1.775 -2.662,-2.35c-1.075,-0.574 -2.238,-0.862 -3.488,-0.862c-1.25,0 -2.412,0.288 -3.488,0.862c-1.074,0.575 -1.962,1.359 -2.662,2.35c-0.7,0.992 -1.133,2.105 -1.3,3.338l-0.15,1.175l-1,0.625c-0.817,0.517 -1.462,1.196 -1.937,2.037c-0.476,0.842 -0.713,1.75 -0.713,2.726c0,0.975 0.229,1.879 0.688,2.712c0.458,0.833 1.083,1.508 1.874,2.025c0.792,0.517 1.671,0.808 2.638,0.875l0.2,0.025h11.7zM15,13.75v5h-2.5v-5h-3.75l5,-6.25l5,6.25z" fill="currentColor"/></svg>