<svg viewBox="0 0 31 31" fill="none" xmlns="http://www.w3.org/2000/svg" xmlns:xlink="http://www.w3.org/1999/xlink" x="0" y="0"><g id="Group">
<path id="Vector" d="M3.4444,15.4994h-3.4444l15.5,-15.4994l15.5,15.4994h-3.444M3.4444,15.4994v12.0552c0,0.9135 0.3629,1.7895 1.0089,2.4355c0.646,0.6459 1.5221,1.0088 2.4356,1.0088h17.2221c0.914,0 1.79,-0.3629 2.436,-1.0088c0.646,-0.646 1.009,-1.522 1.009,-2.4355v-12.0552" stroke="black" stroke-width="2" stroke-linecap="round" stroke-linejoin="round"/>
<path id="Vector_2" d="M10.3325,30.9999v-10.3329c0,-0.9135 0.3629,-1.7896 1.0089,-2.4355c0.6459,-0.646 1.522,-1.0088 2.4356,-1.0088h3.444c0.914,0 1.79,0.3628 2.436,1.0088c0.646,0.6459 1.009,1.522 1.009,2.4355v10.3329" stroke="black" stroke-width="2" stroke-linecap="round" stroke-linejoin="round"/>
</g></svg>