<svg viewBox="0 0 14.9963 16.6667" fill="none" xmlns="http://www.w3.org/2000/svg" xmlns:xlink="http://www.w3.org/1999/xlink" x="0" y="0"><path id="Vector" d="M1.6662,10.8334h1.666v4.167h9.998v-13.334h-9.998v4.167h-1.666v-5c0,-0.233 0.081,-0.43 0.242,-0.592c0.161,-0.161 0.358,-0.241 0.591,-0.241h11.664c0.233,0 0.43,0.08 0.591,0.241c0.162,0.162 0.242,0.359 0.242,0.592v15c0,0.233 -0.08,0.431 -0.242,0.592c-0.161,0.161 -0.358,0.241 -0.591,0.241h-11.664c-0.233,0 -0.43,-0.08 -0.591,-0.241c-0.161,-0.161 -0.242,-0.359 -0.242,-0.592zM6.6652,7.5004v-2.5l4.165,3.333l-4.165,3.333v-2.5h-6.665v-1.666z" fill="currentColor"/></svg>